<?xml version="1.0" encoding="utf-8"?>
<!-- Generator: Adobe Illustrator 22.1.0, SVG Export Plug-In . SVG Version: 6.00 Build 0)  -->
<svg version="1.1" id="Layer_1" xmlns="http://www.w3.org/2000/svg" xmlns:xlink="http://www.w3.org/1999/xlink" x="0px" y="0px"
	 viewBox="0 0 512 512" style="enable-background:new 0 0 512 512;" xml:space="preserve">
<style type="text/css">
	.st0{fill:#00D664;}
</style>
<path class="st0" d="M402.2,50.5c11.3-12.2,14.4-32,13.2-50.2c-12.9-0.9-35.7-0.1-50,13.3c-16.5,16.6-13.8,46.4-13.2,50.2
	C370.7,65,390,61.9,402.2,50.5z M496,224h-25.5c2.8-8.1,5.2-16.6,6.7-25.8c13.6-73.3-25.2-156-125.6-99.9
	c-65.7-36.8-94.5-7.6-95.7-6.7c-1.2-0.9-30.3-30-95.9,6.7C59.4,42,21,125.8,34.4,198.2c1.6,9.3,4,17.7,6.7,25.8H16
	c-8.8,0-16,7.2-16,16v256c0,8.8,7.2,16,16,16h480c8.8,0,16-7.2,16-16V240C512,231.2,504.8,224,496,224z M336.1,126.2l15.6,8.7
	l15.6-8.7c54.7-30.6,67.1-3.7,67.8-2.8c12,17.4,14.5,48.5,10.6,69.4c-2,11.7-5.5,21.8-9.7,31.1H278.8c2.8-8.1,5.2-16.6,6.7-25.8
	c4.3-22.9,2.5-56.5-10-82.1C290.4,105.4,326.4,120.8,336.1,126.2L336.1,126.2z M76.8,123.4c0.7-0.9,12.9-27.8,67.6,2.8L160,135
	l15.6-8.7c54.7-30.6,67.1-3.7,67.8-2.8c12,17.4,14.5,48.5,10.6,69.4c-2,11.7-5.5,21.8-9.7,31.1H75.7c-4.2-9.4-7.7-19.6-9.8-31.7
	C62.1,171.7,65.1,140.3,76.8,123.4z M480,480H32v-96h448V480z M480,352H32v-96h448V352z M80,320c8.8,0,16-7.2,16-16s-7.2-16-16-16
	s-16,7.2-16,16S71.2,320,80,320z M80,448c8.8,0,16-7.2,16-16s-7.2-16-16-16s-16,7.2-16,16S71.2,448,80,448z M432,320
	c8.8,0,16-7.2,16-16s-7.2-16-16-16s-16,7.2-16,16S423.2,320,432,320z M432,448c8.8,0,16-7.2,16-16s-7.2-16-16-16s-16,7.2-16,16
	S423.2,448,432,448z M210.5,50.5c11.3-12.2,14.4-32,13.2-50.2c-12.9-0.9-35.7-0.1-50,13.3c-16.5,16.6-13.8,46.4-13.2,50.2
	C179,65,198.3,61.9,210.5,50.5z"/>
</svg>
