<?xml version="1.0" encoding="utf-8"?>
<!-- Generator: Adobe Illustrator 22.1.0, SVG Export Plug-In . SVG Version: 6.00 Build 0)  -->
<svg version="1.1" id="Layer_1" xmlns="http://www.w3.org/2000/svg" xmlns:xlink="http://www.w3.org/1999/xlink" x="0px" y="0px"
	 viewBox="0 0 640 512" style="enable-background:new 0 0 640 512;" xml:space="preserve">
<style type="text/css">
	.st0{fill:#00D664;}
</style>
<path class="st0" d="M640,184v144c0,13.3-10.7,24-24,24h-8v16c0,26.5-21.5,48-48,48H400.7l18-32H560c8.8,0,16-7.2,16-16v-48h32V192
	h-32v-48c0-8.8-7.2-16-16-16h-90.8c-13.2-9.2-28.2-14.3-43.4-15.7l4-15.2c0.1-0.4,0.2-0.8,0.3-1.1H560c26.5,0,48,21.5,48,48v16h8
	C629.3,160,640,170.7,640,184z M32,368V144c0-8.8,7.2-16,16-16h95.4l3.2-32H48c-26.5,0-48,21.5-48,48v224c0,26.5,21.5,48,48,48
	h149.7c0-0.1,0.1-0.3,0.1-0.4l7.7-31.6H48C39.2,384,32,376.8,32,368z M454.6,222.5l-133,236C314,472.1,299.8,480,285,480
	c-27.3,0-47.6-25.9-40.6-52.7l34-139.3H222c-24.7,0-44.1-21.3-41.8-46l17.3-172c2-21.6,20.2-38,41.8-38h103.6
	c27.7,0,47.7,26.3,40.6,52.9L363.7,160H418C450,160,470.2,194.5,454.6,222.5z M418,192h-95.6l30.1-115.2l0-0.1l0-0.1
	c1.7-6.3-3.1-12.6-9.7-12.6H239.3c-5.2,0-9.5,3.9-10,9.1l0,0.1l0,0.1L212,245.1c-0.5,5.8,4.1,10.9,10,10.9h97.1l-43.7,178.9
	l-0.1,0.3l-0.1,0.3c-1.7,6.6,3.4,12.5,9.7,12.5c2.8,0,6.6-1.3,8.7-5.1l0,0l0,0l132.9-235.9C430.4,200.2,425.6,192,418,192z"/>
</svg>
