<?xml version="1.0" encoding="utf-8"?>
<!-- Generator: Adobe Illustrator 22.1.0, SVG Export Plug-In . SVG Version: 6.00 Build 0)  -->
<svg version="1.1" id="Layer_1" xmlns="http://www.w3.org/2000/svg" xmlns:xlink="http://www.w3.org/1999/xlink" x="0px" y="0px"
	 viewBox="0 0 640 512" style="enable-background:new 0 0 640 512;" xml:space="preserve">
<style type="text/css">
	.st0{fill:#00D664;}
</style>
<path class="st0" d="M144,320c44.1,0,80-35.9,80-80s-35.9-80-80-80s-80,35.9-80,80S99.9,320,144,320z M144,192c26.5,0,48,21.5,48,48
	s-21.5,48-48,48s-48-21.5-48-48S117.5,192,144,192z M528,160H272c-8.8,0-16,7.2-16,16v176H32V72c0-4.4-3.6-8-8-8H8c-4.4,0-8,3.6-8,8
	v368c0,4.4,3.6,8,8,8h16c4.4,0,8-3.6,8-8v-56h576v56c0,4.4,3.6,8,8,8h16c4.4,0,8-3.6,8-8V272C640,210.1,589.9,160,528,160z M608,352
	H288V192h240c44.1,0,80,35.9,80,80V352z"/>
</svg>
