<?xml version="1.0" encoding="utf-8"?>
<!-- Generator: Adobe Illustrator 22.1.0, SVG Export Plug-In . SVG Version: 6.00 Build 0)  -->
<svg version="1.1" id="Layer_1" xmlns="http://www.w3.org/2000/svg" xmlns:xlink="http://www.w3.org/1999/xlink" x="0px" y="0px"
	 viewBox="0 0 512 512" style="enable-background:new 0 0 512 512;" xml:space="preserve">
<style type="text/css">
	.st0{fill:#00D664;}
</style>
<path class="st0" d="M420.7,68.7l-56,56l-38.1-38.1c-12.5-12.5-32.8-12.5-45.3,0l-17.1,17.1c-17.9-5-36.8-7.7-56.3-7.7
	C96,96,3.3,185.9,0.1,297.8C-3.3,415.5,91.1,512,208,512c115.1,0,208-94.2,208-208c0-19.5-2.7-38.4-7.7-56.3l17.1-17.1
	c12.5-12.5,12.5-32.8,0-45.3l-38.1-38.1l56-56L420.7,68.7L420.7,68.7z M372.4,238.3c5.8,20.5,11.6,37.8,11.6,65.7
	c0,96.2-78.5,176-176,176c-24.2,0-47.7-4.8-69.7-14.3c-65.2-28.2-108.4-93.4-106.2-167C34.8,204.1,113.2,128,208,128
	c27.9,0,45.1,5.8,65.7,11.6l30.3-30.3l98.7,98.7C402.7,208,400.9,209.9,372.4,238.3z M512,72c0,6.6-5.4,12-12,12h-24
	c-6.6,0-12-5.4-12-12s5.4-12,12-12h24C506.6,60,512,65.4,512,72z M452,12v24c0,6.6-5.4,12-12,12s-12-5.4-12-12V12
	c0-6.6,5.4-12,12-12S452,5.4,452,12z M457,55c-4.7-4.7-4.7-12.3,0-17l17-17c4.7-4.7,12.3-4.7,17,0s4.7,12.3,0,17l-17,17
	C469.3,59.7,461.7,59.7,457,55z M389.1,38.1c-4.7-4.7-4.7-12.3,0-17s12.3-4.7,17,0l17,17c4.7,4.7,4.7,12.3,0,17s-12.3,4.7-17,0
	L389.1,38.1z M490.9,105.9c4.7,4.7,4.7,12.3,0,17s-12.3,4.7-17,0l-17-17c-4.7-4.7-4.7-12.3,0-17s12.3-4.7,17,0L490.9,105.9z
	 M192,192c0,8.8-7.2,16-16,16c-35.3,0-64,28.7-64,64c0,8.8-7.2,16-16,16s-16-7.2-16-16c0-52.9,43.1-96,96-96
	C184.8,176,192,183.2,192,192z"/>
</svg>
