<?xml version="1.0" encoding="utf-8"?>
<!-- Generator: Adobe Illustrator 22.1.0, SVG Export Plug-In . SVG Version: 6.00 Build 0)  -->
<svg version="1.1" id="Layer_1" xmlns="http://www.w3.org/2000/svg" xmlns:xlink="http://www.w3.org/1999/xlink" x="0px" y="0px"
	 viewBox="0 0 544 512" style="enable-background:new 0 0 544 512;" xml:space="preserve">
<style type="text/css">
	.st0{fill:#00D664;}
</style>
<path class="st0" d="M509.6,230.3c17.5-54.5-20.1-93.2-41.1-105.3c2.7-37.7-25.9-74.3-66.7-79.4C390,18.2,362.8,0,332.2,0
	C307.6,0,286,11.9,272,29.9C258,11.9,236.4,0,211.8,0c-30.6,0-57.7,18.2-69.7,45.6c-40.8,5.1-69.3,41.7-66.7,79.4
	c-21,12.2-58.6,50.9-41.1,105.3C12.9,247.4,0,273.4,0,301c0,32.7,17.4,62.4,45.3,78.5c-2.3,48.2,36.7,88.7,84.9,87.4
	c14.2,27.4,42.6,45,74.1,45c27.9,0,52.5-13.8,67.8-34.8c15.2,21,39.9,34.8,67.8,34.8c31.5,0,59.8-17.6,74-45
	c48.2,1.2,87.2-39.3,84.9-87.4c27.9-16.2,45.3-45.8,45.3-78.5C544,273.4,531.1,247.4,509.6,230.3z M255.9,138.1
	c0,26.1-18.1,47.9-42.3,54c-3.5,0.9-5.8,4.1-5.8,7.7V216c0,5.1,4.7,8.9,9.7,7.9c14.4-2.9,27.5-9.4,38.5-18.4v223
	c0,28.4-23.2,51.5-51.7,51.5c-31.9,0-44.2-21.8-53.1-48.2c-16.3,2.7-18.3,3.2-22.2,3.2c-28.5,0-51.7-23.1-51.7-51.5
	c0-6.2,0.9-9.1,3.7-23C55.5,350,32.1,336.3,32.1,301c0-33.9,23-46.9,42.9-58.3c-12.6-25.7-12.8-29.2-12.8-39.2
	c0-33.9,21.9-48.5,49.4-59.7c-2.5-10.9-4.2-16.6-4.2-22.8c0-24.1,19.6-43.8,45.5-43.8h0.4l12.7,0.3c5.9-22.9,15-45.5,45.8-45.5
	c24.3,0,44.2,19.7,44.2,44L255.9,138.1L255.9,138.1z M463,360.5c2.8,13.8,3.7,16.8,3.7,23c0,28.4-23.2,51.5-51.7,51.5
	c-3.9,0-5.9-0.5-22.2-3.2c-8.9,26.4-21.2,48.2-53.1,48.2c-28.5,0-51.7-23.1-51.7-51.5V205.4c11,9,24.1,15.4,38.5,18.4
	c5,1,9.7-2.8,9.7-7.9v-16.2c0-3.6-2.4-6.8-5.8-7.7c-24.3-6.2-42.4-27.9-42.4-54V76c0-24.3,19.8-44,44.2-44
	c30.7,0,39.9,22.5,45.8,45.5l12.7-0.3h0.4c25.9,0,45.5,19.7,45.5,43.8c0,6.2-1.7,11.9-4.2,22.8c27.5,11.2,49.4,25.8,49.4,59.7
	c0,10-0.2,13.4-12.8,39.2c19.9,11.4,42.9,24.5,42.9,58.3C511.9,336.3,488.5,350,463,360.5L463,360.5z"/>
</svg>
