<?xml version="1.0" encoding="utf-8"?>
<!-- Generator: Adobe Illustrator 22.1.0, SVG Export Plug-In . SVG Version: 6.00 Build 0)  -->
<svg version="1.1" id="Layer_1" xmlns="http://www.w3.org/2000/svg" xmlns:xlink="http://www.w3.org/1999/xlink" x="0px" y="0px"
	 viewBox="0 0 496 512" style="enable-background:new 0 0 496 512;" xml:space="preserve">
<style type="text/css">
	.st0{fill:#00D664;}
</style>
<path class="st0" d="M305,98.7l24,53.6l-92.3,92.3c-6.2,6.2-6.2,16.4,0,22.6c3.1,3.1,7.2,4.7,11.3,4.7s8.2-1.6,11.3-4.7l92.3-92.3
	l53.6,24c7.4,2.5,15.5,0.5,21-5l63.7-63.7c10.8-10.8,6.5-29.2-8-34l-55.7-18.5l-18.5-55.7c-3-9-11.2-14.1-19.6-14.1
	c-5.1,0-10.4,1.9-14.5,6L310,77.7C304.5,83.2,302.6,91.4,305,98.7z M383.2,49.7l12.7,38.1L401,103l15.2,5.1l38.1,12.7l-44.9,44.9
	l-49.1-21.9l-21.9-49.1C338.3,94.7,383.2,49.8,383.2,49.7z M484.4,181.1l-26.2,26.2c3.6,15.7,5.8,31.9,5.8,48.7
	c0,119.1-96.9,216-216,216S32,375.1,32,256S128.9,40,248,40c16.8,0,33,2.1,48.7,5.8l26.2-26.2C298.7,11.9,273.4,8,248,8
	C111,8,0,119,0,256s111,248,248,248s248-111,248-248C496,229.9,491.9,204.7,484.4,181.1z M274.7,108.8c-1.6-4.7-2.5-9.5-2.7-14.4
	c-7.9-1.2-15.8-2.4-24-2.4c-90.6,0-164,73.4-164,164c0,90.6,73.4,164,164,164c90.6,0,164-73.4,164-164c0-8.4-1.2-16.4-2.5-24.4
	c-4.9-0.2-9.8-0.8-14.4-2.3c-2.1-0.7,1,0.6-20.7-9.1c3.3,11.4,5.6,23.3,5.6,35.8c0,72.8-59.2,132-132,132s-132-59.2-132-132
	s59.2-132,132-132c12.5,0,24.3,2.3,35.8,5.6C274.1,107.9,275.4,111,274.7,108.8L274.7,108.8z M248,176c-44.1,0-80,35.9-80,80
	s35.9,80,80,80s80-35.9,80-80c0-3.8-0.6-7.4-1.1-11l-45,44.9l0,0c-8.7,8.7-20.7,14.1-33.9,14.1c-26.5,0-48-21.5-48-48
	c0-13.2,5.4-25.2,14.1-33.9l0,0l44.9-44.9C255.4,176.6,251.8,176,248,176L248,176z"/>
</svg>
