<?xml version="1.0" encoding="utf-8"?>
<!-- Generator: Adobe Illustrator 22.1.0, SVG Export Plug-In . SVG Version: 6.00 Build 0)  -->
<svg version="1.1" id="Layer_1" xmlns="http://www.w3.org/2000/svg" xmlns:xlink="http://www.w3.org/1999/xlink" x="0px" y="0px"
	 viewBox="0 0 384 512" style="enable-background:new 0 0 384 512;" xml:space="preserve">
<style type="text/css">
	.st0{fill:#00D664;}
</style>
<path class="st0" d="M192,0C79.7,101.3,0,220.9,0,300.5C0,425,79,512,192,512s192-87,192-211.5C384,220.6,303.8,100.9,192,0z
	 M98.9,385.2c0-13.3,4.2-61.2,93.1-161.2c88.9,100,93.1,147.9,93.1,161.2c0,48.5-28.9,84.1-72.4,92.7c-6.8,0.8-13.5,2.1-20.7,2.1
	s-13.9-1.2-20.7-2.1C127.8,469.4,98.9,433.7,98.9,385.2L98.9,385.2z M310.9,424.9c3.7-12.4,6.2-25.5,6.2-39.7
	c0-80.9-112.7-195.5-125.1-209.4C179.1,190.3,66.9,304.4,66.9,385.2c0,14.2,2.5,27.3,6.2,39.7C47.3,393.6,32,350.9,32,300.5
	c0-90.8,122.6-215.8,160-251.9c37.4,36,160,161.1,160,251.9C352,350.9,336.7,393.6,310.9,424.9z"/>
</svg>
