<?xml version="1.0" encoding="utf-8"?>
<!-- Generator: Adobe Illustrator 22.1.0, SVG Export Plug-In . SVG Version: 6.00 Build 0)  -->
<svg version="1.1" id="Layer_1" xmlns="http://www.w3.org/2000/svg" xmlns:xlink="http://www.w3.org/1999/xlink" x="0px" y="0px"
	 viewBox="0 0 640 512" style="enable-background:new 0 0 640 512;" xml:space="preserve">
<style type="text/css">
	.st0{fill:#00D664;}
</style>
<path class="st0" d="M632,240h-24v-96c0-26.5-21.5-48-48-48h-32c-5.6,0-11,1.2-16,2.9V80c0-26.5-21.5-48-48-48h-32
	c-26.5,0-48,21.5-48,48v160H256V80c0-26.5-21.5-48-48-48h-32c-26.5,0-48,21.5-48,48v18.9c-5-1.8-10.4-2.9-16-2.9H80
	c-26.5,0-48,21.5-48,48v96H8c-4.4,0-8,3.6-8,8v16c0,4.4,3.6,8,8,8h24v96c0,26.5,21.5,48,48,48h32c5.6,0,11-1.2,16-2.9V432
	c0,26.5,21.5,48,48,48h32c26.5,0,48-21.5,48-48V272h128v160c0,26.5,21.5,48,48,48h32c26.5,0,48-21.5,48-48v-18.9
	c5,1.8,10.4,2.9,16,2.9h32c26.5,0,48-21.5,48-48v-96h24c4.4,0,8-3.6,8-8v-16C640,243.6,636.4,240,632,240z M112,384H80
	c-8.8,0-16-7.2-16-16V144c0-8.8,7.2-16,16-16h32c8.8,0,16,7.2,16,16v224C128,376.8,120.8,384,112,384z M224,432c0,8.8-7.2,16-16,16
	h-32c-8.8,0-16-7.2-16-16V80c0-8.8,7.2-16,16-16h32c8.8,0,16,7.2,16,16V432z M480,432c0,8.8-7.2,16-16,16h-32c-8.8,0-16-7.2-16-16
	V80c0-8.8,7.2-16,16-16h32c8.8,0,16,7.2,16,16V432z M576,368c0,8.8-7.2,16-16,16h-32c-8.8,0-16-7.2-16-16V144c0-8.8,7.2-16,16-16h32
	c8.8,0,16,7.2,16,16V368z"/>
</svg>
