<?xml version="1.0" encoding="utf-8"?>
<!-- Generator: Adobe Illustrator 22.1.0, SVG Export Plug-In . SVG Version: 6.00 Build 0)  -->
<svg version="1.1" id="Layer_1" xmlns="http://www.w3.org/2000/svg" xmlns:xlink="http://www.w3.org/1999/xlink" x="0px" y="0px"
	 viewBox="0 0 576 512" style="enable-background:new 0 0 576 512;" xml:space="preserve">
<style type="text/css">
	.st0{fill:#00D664;}
</style>
<path class="st0" d="M569.5,440c18.5,32-4.7,72-41.6,72H48.1c-36.9,0-60-40.1-41.6-72L246.4,24c18.5-32,64.7-32,83.2,0L569.5,440
	L569.5,440z M541.9,456l-240-416c-6.2-10.7-21.6-10.6-27.7,0l-240,416c-6.2,10.7,1.6,24,13.9,24h480C540.3,480,548,466.6,541.9,456z
	 M288,372c-15.5,0-28,12.5-28,28s12.5,28,28,28s28-12.5,28-28S303.5,372,288,372z M276.5,160h23c6.8,0,12.3,5.7,12,12.5l-7,168
	c-0.3,6.4-5.6,11.5-12,11.5h-9c-6.4,0-11.7-5.1-12-11.5l-7-168C264.2,165.7,269.7,160,276.5,160z M288,372c-15.5,0-28,12.5-28,28
	s12.5,28,28,28s28-12.5,28-28S303.5,372,288,372z"/>
</svg>
