<?xml version="1.0" encoding="utf-8"?>
<!-- Generator: Adobe Illustrator 22.1.0, SVG Export Plug-In . SVG Version: 6.00 Build 0)  -->
<svg version="1.1" id="Layer_1" xmlns="http://www.w3.org/2000/svg" xmlns:xlink="http://www.w3.org/1999/xlink" x="0px" y="0px"
	 viewBox="0 0 448 512" style="enable-background:new 0 0 448 512;" xml:space="preserve">
<style type="text/css">
	.st0{fill:#00D664;}
</style>
<path class="st0" d="M447.7,364l0.3,104c0,6.6-5.4,12-12,12l-104-0.3c-6.6,0-12-5.4-12-12v-10c0-6.6,5.4-12,12-12l58,0.3l0.7-0.7
	L224,278.6L57.3,445.3L58,446l58-0.3c6.6,0,12,5.4,12,12v10c0,6.6-5.4,12-12,12L12,480c-6.6,0-12-5.4-12-12l0.3-104
	c0-6.6,5.4-12,12-12h10c6.6,0,12,5.4,12,12L34,422l0.7,0.7L201.4,256L34.7,89.3L34,90l0.3,58c0,6.6-5.4,12-12,12h-10
	c-6.6,0-12-5.4-12-12L0,44c0-6.6,5.4-12,12-12l104,0.3c6.6,0,12,5.4,12,12v10c0,6.6-5.4,12-12,12L58,66l-0.7,0.7L224,233.4
	L390.7,66.7L390,66l-58,0.3c-6.6,0-12-5.4-12-12v-10c0-6.6,5.4-12,12-12L436,32c6.6,0,12,5.4,12,12l-0.3,104c0,6.6-5.4,12-12,12h-10
	c-6.6,0-12-5.4-12-12l0.3-58l-0.7-0.7L246.6,256l166.7,166.7l0.7-0.7l-0.3-58c0-6.6,5.4-12,12-12h10
	C442.3,352,447.7,357.4,447.7,364z"/>
</svg>
