<?xml version="1.0" encoding="utf-8"?>
<!-- Generator: Adobe Illustrator 22.1.0, SVG Export Plug-In . SVG Version: 6.00 Build 0)  -->
<svg version="1.1" id="Layer_1" xmlns="http://www.w3.org/2000/svg" xmlns:xlink="http://www.w3.org/1999/xlink" x="0px" y="0px"
	 viewBox="0 0 576 512" style="enable-background:new 0 0 576 512;" xml:space="preserve">
<style type="text/css">
	.st0{fill:#00D664;}
</style>
<path class="st0" d="M248.9,192H272v56c0,4.4,3.6,8,8,8h16c4.4,0,8-3.6,8-8v-56h23.1C411.4,192,480,113,480,16V0h-55.1
	C364.9,0,313,40.1,288,98.1C263,40.1,211.1,0,151.1,0H96v16C96,113,164.6,192,248.9,192z M424.9,32h22.4c-6.7,71.9-58,128-120.1,128
	h-22.4C311.4,88.1,362.8,32,424.9,32z M151.1,32c62.1,0,113.4,56.1,120.1,128h-22.4c-62.1,0-113.4-56.1-120.1-128H151.1z
	 M558.3,333.6c-9.6-8.6-22.1-13.4-35.2-13.4c-12.5,0-24.8,4.3-34.6,12.2l-61.6,49.3c-1.9,1.5-4.2,2.3-6.7,2.3h-41.6
	c4.6-9.6,6.5-20.7,4.8-32.3c-4-27.9-29.6-47.7-57.8-47.7H181.3c-20.8,0-41,6.7-57.6,19.2L85.3,352H8c-4.4,0-8,3.6-8,8v16
	c0,4.4,3.6,8,8,8h88l46.9-35.2c11.1-8.3,24.6-12.8,38.4-12.8H328c13.3,0,24,10.7,24,24s-10.7,24-24,24h-88c-8.8,0-16,7.2-16,16
	s7.2,16,16,16h180.2c9.7,0,19.1-3.3,26.7-9.3l61.6-49.2c4.2-3.4,9.5-5.2,14.6-5.2c5,0,9.9,1.7,13.8,5.2c10.1,9.1,9.3,24.5-0.9,32.6
	l-100.8,80.7c-7.6,6.1-17,9.3-26.7,9.3H8c-4.4,0-8,3.6-8,8v16c0,4.4,3.6,8,8,8h400.5c17,0,33.4-5.8,46.6-16.4L556,415
	c12.2-9.8,19.5-24.4,20-40S570,344.2,558.3,333.6L558.3,333.6z"/>
</svg>
