<?xml version="1.0" encoding="utf-8"?>
<!-- Generator: Adobe Illustrator 22.1.0, SVG Export Plug-In . SVG Version: 6.00 Build 0)  -->
<svg version="1.1" id="Layer_1" xmlns="http://www.w3.org/2000/svg" xmlns:xlink="http://www.w3.org/1999/xlink" x="0px" y="0px"
	 viewBox="0 0 512 512" style="enable-background:new 0 0 512 512;" xml:space="preserve">
<style type="text/css">
	.st0{fill:#00D664;}
</style>
<path class="st0" d="M192,224c0-17.7-14.3-32-32-32h-32c-35.3,0-64,28.6-64,64v63.6c0,35.4,28.7,64,64,64h32c17.7,0,32-14.3,32-32
	V224z M160,351.6h-32c-17.6,0-32-14.4-32-32V256c0-17.6,14.4-32,32-32h32V351.6z M384,383.6c35.4,0,64-28.6,64-64V256
	c0-35.4-28.6-64-64-64h-32c-17.7,0-32,14.3-32,32v127.6c0,17.7,14.3,32,32,32H384z M352,224h32c17.6,0,32,14.4,32,32v63.6
	c0,17.6-14.4,32-32,32h-32V224z M256,0C114,0,3.9,117.8,0.1,256L0,280c0,4.4,3.6,8,8,8h16c4.4,0,8-3.6,8-8l0.1-24
	C35.4,135.2,131.6,32,256,32c123.5,0,224,100.5,224,224v176c0,26.5-21.5,48-48,48h-82.9c1.8-5,2.9-10.4,2.9-16c0-26.5-21.5-48-48-48
	h-64c-26.5,0-48,21.5-48,48s21.5,48,48,48h192c44.1,0,80-35.9,80-80V256C512,114.8,397.2,0,256,0z M304,480h-64c-8.8,0-16-7.2-16-16
	s7.2-16,16-16h64c8.8,0,16,7.2,16,16S312.8,480,304,480z"/>
</svg>
