<?xml version="1.0" encoding="utf-8"?>
<!-- Generator: Adobe Illustrator 22.1.0, SVG Export Plug-In . SVG Version: 6.00 Build 0)  -->
<svg version="1.1" id="Layer_1" xmlns="http://www.w3.org/2000/svg" xmlns:xlink="http://www.w3.org/1999/xlink" x="0px" y="0px"
	 viewBox="0 0 512 512" style="enable-background:new 0 0 512 512;" xml:space="preserve">
<style type="text/css">
	.st0{fill:#00D664;}
</style>
<path class="st0" d="M449,365.6c-100.8,19.2-193.8-57.9-193.8-160.2c0-58.9,31.6-112.8,82.6-141.9c25.8-14.7,19.3-53.9-10-59.3
	C312.3,1.4,296.6,0,280.9,0c-141.3,0-256,114.5-256,256c0,141.3,114.5,256,256,256c78.9,0,151.1-35.9,198.9-94.8
	C498.6,394,478.1,360.1,449,365.6z M280.9,480c-123.7,0-224-100.3-224-224s100.3-224,224-224c14,0,27.7,1.3,40.9,3.7
	c-59,33.6-98.7,97-98.7,169.7c0,122.6,111.6,214.5,231.8,191.6C413.9,447.7,351.2,480,280.9,480z"/>
</svg>
