<?xml version="1.0" encoding="utf-8"?>
<!-- Generator: Adobe Illustrator 22.1.0, SVG Export Plug-In . SVG Version: 6.00 Build 0)  -->
<svg version="1.1" id="Layer_1" xmlns="http://www.w3.org/2000/svg" xmlns:xlink="http://www.w3.org/1999/xlink" x="0px" y="0px"
	 viewBox="0 0 511 512" style="enable-background:new 0 0 511 512;" xml:space="preserve">
<style type="text/css">
	.st0{fill:#00D664;}
</style>
<path class="st0" d="M501.8,19.1c-1.1-4.4-4.5-7.8-8.8-8.8C453.7,0.7,442.5,0,408,0c-68.6,0-128.1,44.9-173.8,96H106.7
	c-11.4,0-21.9,6-27.6,15.9l-74.7,128C-8,261.2,7.4,288,32,288h82.7c-8.6,19.1-14.3,33.5-18.6,44.6c-1.7,4.4-0.7,9.5,2.7,12.8
	l67.7,67.7c3.4,3.4,8.4,4.4,12.8,2.7c11.2-4.3,25.5-10,44.6-18.6V480c0,24.7,26.8,40.1,48.1,27.6l128-74.7
	c9.8-5.7,15.9-16.3,15.9-27.6V277.8c51.1-45.7,96-105.2,96-173.8C512,69.5,511.3,58.2,501.8,19.1L501.8,19.1z M32,256l74.7-128
	h101.1c-32.5,42.6-58.6,88.3-78.1,128H32z M256,480v-97.7c39.7-19.5,85.4-45.5,128-78.1v101.1L256,480z M179.9,381.3l-49.1-49.1
	C177.6,215.9,283.8,32,408.1,32c24.7,0,37.3,0,65.5,6.5C480,66.7,480,79.2,480,104C480,228.3,295.9,334.5,179.9,381.3z M368,88
	c-30.9,0-56,25.1-56,56s25.1,56,56,56s56-25.1,56-56S398.9,88,368,88z M368,168c-13.2,0-24-10.8-24-24s10.8-24,24-24s24,10.8,24,24
	S381.2,168,368,168z"/>
</svg>
