<?xml version="1.0" encoding="utf-8"?>
<!-- Generator: Adobe Illustrator 22.1.0, SVG Export Plug-In . SVG Version: 6.00 Build 0)  -->
<svg version="1.1" id="Layer_1" xmlns="http://www.w3.org/2000/svg" xmlns:xlink="http://www.w3.org/1999/xlink" x="0px" y="0px"
	 viewBox="0 0 640 512" style="enable-background:new 0 0 640 512;" xml:space="preserve">
<style type="text/css">
	.st0{fill:#00D664;}
</style>
<path class="st0" d="M208,96C93.1,96,0,189.1,0,304s93.1,208,208,208s208-93.1,208-208S322.9,96,208,96z M208,480
	c-97,0-176-79-176-176s79-176,176-176s176,79,176,176S305,480,208,480z M283.8,349.3C265,371.4,237.4,384,208,384
	s-57-12.6-75.8-34.6c-5.7-6.7-15.9-7.5-22.5-1.8c-6.8,5.8-7.5,15.8-1.8,22.6C132.7,399.3,169.2,416,208,416s75.3-16.7,100.2-45.9
	c5.8-6.7,4.9-16.8-1.8-22.6C299.8,341.9,289.6,342.6,283.8,349.3L283.8,349.3z M144,280c13.3,0,24-10.7,24-24s-10.7-24-24-24
	s-24,10.7-24,24C120,269.3,130.7,280,144,280z M272,280c13.3,0,24-10.7,24-24s-10.7-24-24-24s-24,10.7-24,24
	C248,269.3,258.7,280,272,280z M632,96h-88V8c0-4.4-3.6-8-8-8h-16c-4.4,0-8,3.6-8,8v88h-88c-4.4,0-8,3.6-8,8v16c0,4.4,3.6,8,8,8h88
	v88c0,4.4,3.6,8,8,8h16c4.4,0,8-3.6,8-8v-88h88c4.4,0,8-3.6,8-8v-16C640,99.6,636.4,96,632,96z"/>
</svg>
