<?xml version="1.0" encoding="utf-8"?>
<!-- Generator: Adobe Illustrator 22.1.0, SVG Export Plug-In . SVG Version: 6.00 Build 0)  -->
<svg version="1.1" id="Layer_1" xmlns="http://www.w3.org/2000/svg" xmlns:xlink="http://www.w3.org/1999/xlink" x="0px" y="0px"
	 viewBox="0 0 576 512" style="enable-background:new 0 0 576 512;" xml:space="preserve">
<style type="text/css">
	.st0{fill:#00D664;}
</style>
<path class="st0" d="M568.3,192.1L568.3,192.1c-22.7,0.1-92,4.3-158.9,42.3C390,152.8,349,80.5,296.9,35.1c-2.4-2.1-5.6-3.1-8.9-3.1
	s-6.4,1-8.9,3.1C227,80.6,186.1,152.9,166.6,234.4C99.8,196.4,30.4,192.2,7.8,192.1h0c-4.4,0-7.8,3.4-7.7,7.8
	c0.2,27.9,7.1,126.2,88.8,199.4c58.2,56.7,131.1,74.8,177,80.5c0,0.3,44.5,0.3,44.5,0c45.9-5.7,118.7-23.7,177-80.5
	c81.6-73.2,88.5-171.5,88.8-199.4C576,195.5,572.7,192.1,568.3,192.1L568.3,192.1z M110.1,375.5C54.9,326,38.5,263.2,33.8,225.6
	c40.8,4.1,110.9,19.3,166.4,73.4c25.4,22.7,44.4,50,58.2,83.3c8.5,20.6,13.6,41.3,13.6,65.8C229.2,446.9,157.4,421.5,110.1,375.5z
	 M221.6,275.1c-8.5-8.3-17.4-15.4-26.5-22.1c15.1-71.6,48.7-138.1,92.9-182.3c44.2,44.2,77.7,110.7,92.9,182.3
	c-9,6.7-18,13.8-26.5,22.2C321.3,304.8,301,338.5,288,370C275,338.5,254.7,304.8,221.6,275.1L221.6,275.1z M464.9,376.4
	c-44.6,43.5-116.1,70.5-160.9,71.7c0-24.3,5-45,13.6-65.8c13.8-33.3,32.8-60.6,59.2-84.2c54.8-53.4,124.7-68.5,165.4-72.5
	C537.4,263.2,520.9,326.1,464.9,376.4z"/>
</svg>
