<svg width="576" height="512" viewBox="0 0 576 512" fill="none" xmlns="http://www.w3.org/2000/svg">
<path d="M543.9 96C537.7 96 531.4 97.8 525.7 101.7L416 171.6V111.8C416 85.4 392.8 64 364.2 64H51.8C23.2 64 0 85.4 0 111.8V400.2C0 426.6 23.2 448 51.8 448H364.2C392.8 448 416 426.6 416 400.2V340.4L525.6 410.3C531.3 414.3 537.7 416 543.8 416C560.4 416 575.9 403 575.9 384.5V127.5C576 109 560.5 96 543.9 96V96ZM384 400.2C384 408.8 374.9 416 364.2 416H51.8C41.1 416 32 408.8 32 400.2V111.8C32 103.2 41.1 96 51.8 96H364.2C374.9 96 384 103.2 384 111.8V400.2ZM544 384.5L542.8 383.2L416 302.4V209.5L544 128V384.5Z" fill="#00D664"/>
</svg>
